<?xml version="1.0" encoding="utf-8"?>
<!-- Generator: Adobe Illustrator 26.0.3, SVG Export Plug-In . SVG Version: 6.00 Build 0)  -->
<svg version="1.0" id="Layer_1" xmlns="http://www.w3.org/2000/svg" xmlns:xlink="http://www.w3.org/1999/xlink" x="0px" y="0px"
	 viewBox="0 0 864 589" style="enable-background:new 0 0 864 589;" xml:space="preserve">
<style type="text/css">
	.st0{fill:#EB190E;}
</style>
<g id="Слой_1">
	<g id="_792240112">
		<path class="st0" d="M312,253c17.3-0.1,33.8,6.7,46,19c11,12,19,28,19,46v48c0,10-7,17-17,17h-48c-35.9,0-65-29.1-65-65
			S276.1,253,312,253z M311,355h1c9.8,0,19.2-4,26-11c6-6,11-16,11-26l0,0c0-10-5-20-11-26c-7.1-7.2-16.9-11.2-27-11
			c-9.8,0-19.2,4-26,11c-7,6-11,16-11,26s4,20,11,26C291.8,351,301.2,355,311,355z"/>
		<path d="M128,300c-2-13-11-20-23-20s-21,7-23,19c-1,2-1,12-1,15v56c0,7-6,12-13,12s-13-5-13-12v-66c0-34,22-50,50-50
			c14,0,29,5,36,19c8-14,23-19,37-19c28,0,50,16,50,50v66c0,7-6,12-13,12s-13-5-13-12v-56c0-3-1-13-1-15c-2-12-11-19-23-19
			s-21,7-23,20c-1,3-1,7-1,11v59c0,7-5,12-13,12c-7,0-13-5-13-12v-59C128,307,129,303,128,300z"/>
		<path d="M531,267c0-7,6-12,13-12s13,5,13,12v103c0,7-6,12-13,12s-13-5-13-12V267z"/>
		<circle cx="544" cy="222" r="16"/>
		<path d="M399,276c-4-5-3-14,2-18c6-4,14-3,18,2l31,38l29-38c5-5,13-6,18-2c6,5,7,13,2,18l-33,42l34,43c5,6,4,14-2,19
			c-6,4-14,3-18-2l-31-41l-30,41c-5,5-13,6-18,2c-5.8-4.6-7.1-12.9-3-19l34-43L399,276z"/>
		<path d="M788,239c1.7,0,3-1.3,3-3s-1.3-3-3-3h-7v6H788z M785,217c6.4-0.1,12.5,2.4,17,7c4,4,7,10,7,16c0,6.4-2.5,12.5-7,17
			c-5,5-10,7-17,7c-13.2,0.1-23.9-10.6-24-23.8c0-0.1,0-0.1,0-0.2c0-6,3-12,7-16C772,219,778,217,785,217z M798,228c-3-4-8-6-13-6
			s-10,2-13,6c-3.2,3.2-5,7.5-5,12c0,4.8,1.7,9.5,5,13c3,4,8,6,13,6s10-2,13-6c3.3-3.5,5-8.2,5-13C803,235.5,801.2,231.2,798,228z
			 M783,244h-2v7c-0.1,1.6-1.4,2.9-3,3c-1,0-3-2-3-3v-21l0,0v-1l0,0v-1l0,0v-1h13c4,0,8,4,8,9c0,3-2,7-6,8l5,5c1,1.1,1,2.9,0,4
			c-2,1-3,1-4,0l-7-9H783z"/>
		<path d="M658,300c-2-13-11-20-23-20s-21,7-23,19c0,3-1,12-1,15v56c0,7-5,12-13,12c-7,0-13-5-13-12v-66c0-34,22-50,50-50
			c14,0,29,5,37,19c7-14,22-19,36-19c28,0,50,16,50,50v66c0,7-6,12-13,12s-13-5-13-12v-56c0-3,0-13-1-15c-2-12-11-19-23-19
			c-11,0-21,7-23,20c-1,3,0,7,0,11v59c0,7-6,12-13,12s-13-5-13-12v-70H658z"/>
	</g>
</g>
</svg>
